<?xml version="1.0" encoding="utf-8"?>
<!-- Generator: Adobe Illustrator 24.3.0, SVG Export Plug-In . SVG Version: 6.00 Build 0)  -->
<svg version="1.1" id="Layer_1" xmlns="http://www.w3.org/2000/svg" xmlns:xlink="http://www.w3.org/1999/xlink" x="0px" y="0px"
	 viewBox="0 0 267.77 83.09" style="enable-background:new 0 0 267.77 83.09;" xml:space="preserve">
<style type="text/css">
	.st0{fill:#FFFFFF;}
</style>
<g id="XMLID_27_">
	<path id="XMLID_545_" d="M38.7,14.27"/>
	<ellipse id="XMLID_539_" class="st0" cx="51.33" cy="18.51" rx="0.95" ry="0.92"/>
	<g id="XMLID_42_">
		<path id="XMLID_26_" class="st0" d="M54.27,62.21c-0.56,0-1.01,0.45-1.01,1.01c0,0.56,0.45,1.01,1.01,1.01
			c0.56,0,1.01-0.45,1.01-1.01C55.28,62.67,54.83,62.21,54.27,62.21z"/>
		<circle id="XMLID_384_" class="st0" cx="62.22" cy="44.66" r="1.01"/>
		<path id="XMLID_390_" class="st0" d="M66.58,40.06c0-2.14-0.86-4.17-2.37-5.66c0.24-0.77,0.36-1.56,0.36-2.36
			c0-3.87-2.78-7.11-6.45-7.82c0.28-0.7,0.43-1.45,0.43-2.22c0-2.45-1.49-4.56-3.61-5.48c-3.54-2.82-7.4-4.5-10.37-4.5
			c-1.65,0-3.11,0.81-4.01,2.06c-0.9-1.24-2.36-2.06-4.01-2.06c-2.97,0-6.84,1.68-10.37,4.5c-2.12,0.91-3.61,3.02-3.61,5.48
			c0,0.77,0.15,1.52,0.43,2.22c-3.67,0.71-6.45,3.95-6.45,7.82c0,0.81,0.12,1.6,0.36,2.36c-1.51,1.49-2.37,3.52-2.37,5.66
			c0,1.67,0.52,3.23,1.41,4.51c-0.92,1.33-1.41,2.88-1.41,4.52c0,2.9,1.58,5.55,4.08,6.95c-0.04,0.36-0.06,0.72-0.06,1.08
			c0,3.91,2.55,7.36,6.25,8.54c1.61,2.75,4.54,4.45,7.74,4.45c3.51,0,6.56-2.03,8.03-4.98c1.47,2.95,4.52,4.98,8.03,4.98
			c3.2,0,6.13-1.69,7.74-4.45c3.7-1.18,6.25-4.63,6.25-8.54c0-0.36-0.02-0.72-0.06-1.08c2.5-1.4,4.08-4.05,4.08-6.95
			c0-1.63-0.49-3.19-1.41-4.52C66.06,43.29,66.58,41.73,66.58,40.06z M39.62,28.66c-0.85-0.67-1.91-1.07-3.07-1.07
			c-0.52,0-0.94,0.42-0.94,0.94c0,0.52,0.42,0.94,0.94,0.94c1.69,0,3.07,1.38,3.07,3.07v22.61c-1.17-1.51-2.82-2.65-4.76-3.17
			c-0.5-0.13-1.02,0.16-1.15,0.66c-0.13,0.5,0.16,1.02,0.66,1.15c3.09,0.83,5.25,3.64,5.25,6.84c0,3.91-3.18,7.09-7.09,7.09
			c-2.64,0-5.04-1.45-6.27-3.8c-0.12-0.23-0.34-0.4-0.59-0.47c-3.09-0.83-5.24-3.64-5.24-6.84c0-0.48,0.05-0.96,0.14-1.42
			c0.09-0.43-0.14-0.87-0.54-1.05c-2.2-0.98-3.62-3.16-3.62-5.56c0-1.09,0.28-2.13,0.82-3.06c1.4,1.24,3.25,1.99,5.26,1.99
			c0.52,0,0.94-0.42,0.94-0.94c0-0.52-0.42-0.94-0.94-0.94c-3.35,0-6.08-2.73-6.08-6.08c0-1.81,0.8-3.51,2.19-4.67
			c0.31-0.26,0.42-0.7,0.27-1.08c-0.3-0.73-0.45-1.5-0.45-2.28c0-3.35,2.73-6.08,6.08-6.08c3.35,0,6.08,2.73,6.08,6.08
			c0,0.52,0.42,0.94,0.94,0.94c0.52,0,0.94-0.42,0.94-0.94c0-4.22-3.3-7.68-7.45-7.95c-0.38-0.63-0.57-1.35-0.57-2.09
			c0-1.68,1.02-3.12,2.47-3.75c0.06-0.02,0.11-0.04,0.16-0.07c0.45-0.17,0.94-0.27,1.44-0.27c1.58,0,2.98,0.88,3.67,2.3
			c0.23,0.47,0.79,0.66,1.26,0.44c0.47-0.23,0.66-0.79,0.44-1.26c-0.79-1.62-2.27-2.78-3.99-3.19c2.4-1.47,4.77-2.3,6.65-2.3
			c1.69,0,3.07,1.38,3.07,3.07V28.66z M41.47,15.38c0.39,0,0.7,0.29,0.75,0.66l7.22,1.74c0.29-0.76,1.03-1.31,1.89-1.31
			c1.12,0,2.03,0.91,2.03,2.03c0,0.39-0.12,0.75-0.31,1.06l2.26,1.82c0.11-0.07,0.24-0.11,0.38-0.11c0.42,0,0.76,0.33,0.76,0.75
			c0,0.41-0.34,0.74-0.76,0.74c-0.42,0-0.76-0.33-0.76-0.74c0-0.09,0.02-0.17,0.05-0.25l-2.25-1.81c-0.37,0.35-0.86,0.57-1.4,0.57
			c-0.57,0-1.08-0.24-1.45-0.62l-2.03,1.38c0.05,0.13,0.09,0.28,0.09,0.43c0,0.65-0.54,1.17-1.21,1.17c-0.67,0-1.21-0.53-1.21-1.17
			c0-0.65,0.54-1.17,1.21-1.17c0.32,0,0.61,0.12,0.83,0.32l2.02-1.38c-0.17-0.3-0.28-0.64-0.28-1c0-0.08,0.01-0.15,0.02-0.22
			l-7.24-1.75c-0.14,0.2-0.36,0.33-0.62,0.33c-0.42,0-0.76-0.33-0.76-0.75S41.05,15.38,41.47,15.38z M44.88,30.14
			c0,0.65-0.54,1.17-1.21,1.17c-0.67,0-1.21-0.53-1.21-1.17c0-0.65,0.54-1.17,1.21-1.17C44.34,28.97,44.88,29.49,44.88,30.14z
			 M41.13,32.3c0.42,0,0.76,0.33,0.76,0.75c0,0.41-0.34,0.74-0.76,0.74s-0.76-0.33-0.76-0.74C40.37,32.64,40.71,32.3,41.13,32.3z
			 M54.27,65.25c-0.44,0-0.85-0.15-1.19-0.39l-0.94,0.94c0.08,0.14,0.14,0.28,0.14,0.45c0,0.51-0.43,0.92-0.95,0.92
			c-0.35,0-0.64-0.19-0.81-0.46l-2.25,0.55c0,0.01,0,0.02,0,0.03c0,0.65-0.54,1.17-1.21,1.17s-1.21-0.53-1.21-1.17
			c0-0.05,0.01-0.09,0.01-0.14l-2.17-0.74c-0.17,0.23-0.44,0.39-0.76,0.39c-0.53,0-0.95-0.41-0.95-0.92c0-0.38,0.24-0.71,0.59-0.85
			l-1.17-8.97c-0.62-0.05-1.1-0.55-1.1-1.16c0-0.65,0.54-1.17,1.21-1.17c0.34,0,0.65,0.14,0.87,0.36l1.9-1.12
			c-0.04-0.12-0.07-0.24-0.07-0.38c0-0.65,0.54-1.17,1.21-1.17c0.67,0,1.21,0.53,1.21,1.17c0,0.65-0.54,1.17-1.21,1.17
			c-0.34,0-0.65-0.14-0.87-0.37l-1.9,1.12c0.04,0.12,0.07,0.24,0.07,0.38c0,0.51-0.34,0.94-0.81,1.1l1.17,8.99
			c0.46,0.07,0.81,0.43,0.81,0.89c0,0.02-0.01,0.03-0.01,0.05l2.16,0.74c0.21-0.33,0.59-0.56,1.02-0.56c0.47,0,0.88,0.27,1.07,0.65
			l2.24-0.55c0.02-0.49,0.43-0.89,0.95-0.89c0.16,0,0.31,0.05,0.44,0.12l0.94-0.94c-0.29-0.35-0.47-0.8-0.47-1.29
			c0-1.12,0.91-2.03,2.03-2.03c1.12,0,2.03,0.91,2.03,2.03C56.3,64.34,55.39,65.25,54.27,65.25z M53.51,47.24
			c0-0.41,0.34-0.74,0.76-0.74c0.42,0,0.76,0.33,0.76,0.74c0,0.41-0.34,0.75-0.76,0.75C53.85,47.98,53.51,47.65,53.51,47.24z
			 M63.75,50.91c-0.1,0-0.19-0.02-0.28-0.06l-2.66,2.93c0.15,0.19,0.24,0.43,0.24,0.69c0,0.64-0.53,1.17-1.19,1.17L59,59.69
			c0.22,0.13,0.37,0.36,0.37,0.62c0,0.41-0.34,0.74-0.76,0.74s-0.76-0.33-0.76-0.74c0-0.37,0.29-0.67,0.65-0.72l0.85-4.04
			c-0.42-0.18-0.72-0.59-0.72-1.07c0-0.65,0.54-1.17,1.21-1.17c0.21,0,0.41,0.06,0.58,0.15l2.67-2.94c-0.06-0.11-0.1-0.22-0.1-0.35
			c0-0.25,0.14-0.46,0.33-0.6l-0.81-2.9c-0.1,0.01-0.19,0.03-0.29,0.03c-0.75,0-1.41-0.42-1.76-1.03l-2.13,0.88
			c0.01,0.07,0.02,0.14,0.02,0.21c0,0.65-0.54,1.17-1.21,1.17c-0.67,0-1.21-0.53-1.21-1.17s0.54-1.17,1.21-1.17
			c0.41,0,0.76,0.2,0.98,0.5l2.14-0.88c-0.05-0.17-0.08-0.34-0.08-0.53c0-1.12,0.91-2.03,2.03-2.03c1.12,0,2.03,0.91,2.03,2.03
			c0,0.84-0.51,1.56-1.24,1.87l0.81,2.89c0.39,0.03,0.7,0.34,0.7,0.73C64.52,50.57,64.17,50.91,63.75,50.91z M63.75,40.7
			c-0.42,0-0.76-0.33-0.76-0.75c0-0.21,0.09-0.39,0.22-0.53l-1.46-3c-0.09,0.02-0.18,0.03-0.27,0.03c-0.67,0-1.21-0.53-1.21-1.17
			c0-0.53,0.36-0.97,0.85-1.12l-0.34-3.75c-0.33-0.08-0.57-0.36-0.57-0.71c0-0.06,0.02-0.11,0.03-0.16l-3.9-2.46
			c-0.22,0.21-0.52,0.34-0.85,0.34c-0.42,0-0.78-0.21-1-0.52l-2.92,1.12c0,0.01,0,0.01,0,0.02c0,0.41-0.34,0.74-0.76,0.74
			c-0.03,0-0.05-0.01-0.08-0.02l-1.56,3.1c0.28,0.22,0.46,0.54,0.46,0.92c0,0.65-0.54,1.17-1.21,1.17c-0.67,0-1.21-0.53-1.21-1.17
			c0-0.65,0.54-1.17,1.21-1.17c0.1,0,0.2,0.02,0.29,0.04l1.56-3.09c-0.13-0.13-0.22-0.32-0.22-0.52c0-0.41,0.34-0.75,0.76-0.75
			c0.23,0,0.42,0.1,0.56,0.26l2.92-1.12c-0.01-0.06-0.02-0.12-0.02-0.18c0-0.65,0.54-1.17,1.21-1.17c0.67,0,1.21,0.53,1.21,1.17
			c0,0.14-0.03,0.28-0.08,0.41l3.9,2.46c0.13-0.09,0.28-0.16,0.45-0.16c0.42,0,0.76,0.33,0.76,0.74c0,0.3-0.18,0.55-0.45,0.67
			l0.34,3.74c0.59,0.07,1.06,0.56,1.06,1.16c0,0.38-0.19,0.71-0.47,0.93l1.46,3.01c0.02,0,0.05-0.01,0.07-0.01
			c0.42,0,0.76,0.33,0.76,0.74C64.52,40.37,64.17,40.7,63.75,40.7z"/>
	</g>
	<g id="XMLID_28_">
		<path id="XMLID_359_" class="st0" d="M104,45.17c0,0.88-0.02,1.5-0.05,1.85c-0.11,2.22-0.65,4.27-1.64,6.15
			c-0.99,1.88-2.35,3.39-4.09,4.54c-1.74,1.14-3.76,1.72-6.04,1.72c-1.97,0-3.61-0.32-4.91-0.95c-1.3-0.63-2.32-1.37-3.06-2.22v1.21
			c0,0.39-0.14,0.72-0.42,1c-0.28,0.28-0.62,0.42-1,0.42h-4.01c-0.39,0-0.72-0.14-1-0.42c-0.28-0.28-0.42-0.61-0.42-1V22.86
			c0-0.39,0.14-0.72,0.42-1c0.28-0.28,0.62-0.42,1-0.42h4.01c0.39,0,0.72,0.14,1,0.42c0.28,0.28,0.42,0.61,0.42,1v11.24
			c0.77-0.84,1.81-1.58,3.11-2.22c1.3-0.63,2.92-0.95,4.85-0.95c2.28,0,4.3,0.57,6.04,1.71c1.74,1.14,3.1,2.66,4.09,4.54
			c0.99,1.88,1.53,3.93,1.64,6.15C103.98,43.68,104,44.3,104,45.17z M86.25,38.87c-1.18,1.07-1.86,2.51-2.03,4.3
			c-0.04,0.35-0.05,1.02-0.05,2.01c0,0.99,0.02,1.66,0.05,2.01c0.17,1.87,0.84,3.32,2.01,4.35c1.16,1.04,2.62,1.56,4.38,1.56
			c1.79,0,3.27-0.53,4.43-1.58c1.16-1.05,1.85-2.67,2.06-4.85c0.07-0.7,0.11-1.19,0.11-1.48c0-2.67-0.6-4.66-1.79-5.96
			c-1.2-1.3-2.8-1.95-4.8-1.95C88.87,37.26,87.43,37.8,86.25,38.87z"/>
		<path id="XMLID_356_" class="st0" d="M128.38,32.75c1.97,1.21,3.49,2.84,4.56,4.88s1.61,4.27,1.61,6.7v2.37
			c0,0.39-0.14,0.72-0.42,1c-0.28,0.28-0.62,0.42-1,0.42H115.5c0,1.51,0.6,2.72,1.79,3.62c1.2,0.9,2.62,1.35,4.27,1.35
			c1.93,0,3.43-0.41,4.48-1.22c0.39-0.28,0.7-0.47,0.95-0.58c0.25-0.11,0.58-0.16,1-0.16h4.22c0.39,0,0.72,0.13,1,0.4
			c0.28,0.26,0.42,0.57,0.42,0.92c0,0.74-0.49,1.67-1.45,2.8c-0.97,1.13-2.37,2.1-4.2,2.93c-1.83,0.83-3.97,1.24-6.44,1.24
			c-2.6,0-4.88-0.6-6.83-1.79c-1.95-1.2-3.45-2.87-4.51-5.01c-1.05-2.14-1.58-4.62-1.58-7.44c0-2.64,0.53-5.04,1.58-7.2
			c1.06-2.16,2.57-3.88,4.54-5.15c1.97-1.26,4.24-1.9,6.81-1.9C124.14,30.93,126.4,31.54,128.38,32.75z M127.43,42.12
			c-0.39-3.24-2.34-4.85-5.86-4.85c-1.83,0-3.26,0.49-4.3,1.48c-1.04,0.99-1.63,2.11-1.77,3.38H127.43z"/>
		<path id="XMLID_354_" class="st0" d="M147.18,54.33c0.65,1,1.73,1.5,3.24,1.5h2.85c0.35,0,0.63,0.11,0.85,0.32
			c0.21,0.21,0.32,0.49,0.32,0.84v0.74c0,0.35-0.11,0.63-0.32,0.85c-0.21,0.21-0.49,0.32-0.85,0.32h-3.11
			c-2.6,0-4.45-0.78-5.54-2.35c-1.09-1.56-1.64-3.72-1.64-6.46V34.52h-4.12c-0.35,0-0.63-0.11-0.84-0.32
			c-0.21-0.21-0.32-0.49-0.32-0.84v-0.74c0-0.35,0.11-0.63,0.32-0.84c0.21-0.21,0.49-0.32,0.84-0.32h4.12v-8.86
			c0-0.35,0.11-0.63,0.32-0.85c0.21-0.21,0.49-0.32,0.84-0.32h0.9c0.35,0,0.63,0.11,0.84,0.32c0.21,0.21,0.32,0.49,0.32,0.85v8.86
			h6.54c0.35,0,0.63,0.11,0.84,0.32c0.21,0.21,0.32,0.49,0.32,0.84v0.74c0,0.35-0.11,0.63-0.32,0.84c-0.21,0.21-0.49,0.32-0.84,0.32
			h-6.54v15.35C146.21,51.84,146.53,53.33,147.18,54.33z"/>
		<path id="XMLID_352_" class="st0" d="M166.76,31.98c1.35-0.7,3.1-1.05,5.25-1.05c3.45,0,6.1,1.1,7.97,3.3s2.8,5.04,2.8,8.52v14.98
			c0,0.35-0.11,0.63-0.32,0.85c-0.21,0.21-0.49,0.32-0.84,0.32h-0.9c-0.35,0-0.63-0.11-0.84-0.32c-0.21-0.21-0.32-0.49-0.32-0.85
			V43.01c0-2.85-0.7-5.07-2.08-6.65c-1.39-1.58-3.39-2.37-5.99-2.37c-2.53,0-4.56,0.8-6.07,2.4c-1.51,1.6-2.27,3.81-2.27,6.62v14.72
			c0,0.35-0.11,0.63-0.32,0.85c-0.21,0.21-0.49,0.32-0.84,0.32h-0.9c-0.35,0-0.63-0.11-0.84-0.32c-0.21-0.21-0.32-0.49-0.32-0.85
			V22.59c0-0.35,0.11-0.63,0.32-0.85c0.21-0.21,0.49-0.32,0.84-0.32h0.9c0.35,0,0.63,0.11,0.84,0.32c0.21,0.21,0.32,0.49,0.32,0.85
			v12.5C164.2,33.73,165.4,32.69,166.76,31.98z"/>
		<path id="XMLID_36_" class="st0" d="M194.51,25.49c-0.23,0.21-0.52,0.32-0.87,0.32h-2.01c-0.35,0-0.63-0.11-0.84-0.32
			c-0.21-0.21-0.32-0.49-0.32-0.84v-2.01c0-0.35,0.11-0.64,0.32-0.87c0.21-0.23,0.49-0.34,0.84-0.34h2.01
			c0.35,0,0.64,0.11,0.87,0.34c0.23,0.23,0.34,0.52,0.34,0.87v2.01C194.85,25,194.74,25.28,194.51,25.49z M193.96,58.58
			c-0.21,0.21-0.49,0.32-0.84,0.32h-0.9c-0.35,0-0.63-0.11-0.84-0.32c-0.21-0.21-0.32-0.49-0.32-0.85V32.62
			c0-0.35,0.11-0.63,0.32-0.84c0.21-0.21,0.49-0.32,0.84-0.32h0.9c0.35,0,0.63,0.11,0.84,0.32c0.21,0.21,0.32,0.49,0.32,0.84v25.11
			C194.27,58.08,194.17,58.37,193.96,58.58z"/>
		<path id="XMLID_34_" class="st0" d="M225.35,58.58c-0.21,0.21-0.49,0.32-0.85,0.32h-0.9c-0.35,0-0.63-0.11-0.85-0.32
			c-0.21-0.21-0.32-0.49-0.32-0.85V43.01c0-2.85-0.7-5.07-2.08-6.65c-1.39-1.58-3.39-2.37-5.99-2.37c-2.53,0-4.56,0.8-6.07,2.4
			c-1.51,1.6-2.27,3.81-2.27,6.62v14.72c0,0.35-0.11,0.63-0.32,0.85c-0.21,0.21-0.49,0.32-0.84,0.32h-0.9
			c-0.35,0-0.63-0.11-0.84-0.32c-0.21-0.21-0.32-0.49-0.32-0.85V32.62c0-0.35,0.11-0.63,0.32-0.84c0.21-0.21,0.49-0.32,0.84-0.32
			h0.9c0.35,0,0.63,0.11,0.84,0.32c0.21,0.21,0.32,0.49,0.32,0.84v2.48c1.05-1.37,2.26-2.41,3.61-3.11c1.35-0.7,3.1-1.05,5.25-1.05
			c3.45,0,6.1,1.1,7.97,3.3c1.86,2.2,2.8,5.04,2.8,8.52v14.98C225.67,58.08,225.56,58.37,225.35,58.58z"/>
		<path id="XMLID_32_" class="st0" d="M253.89,56.78c0.46,0.42,0.69,0.78,0.69,1.05c0,0.32-0.1,0.57-0.29,0.77
			c-0.2,0.19-0.45,0.29-0.77,0.29h-0.84c-0.53,0-0.91-0.04-1.16-0.13c-0.24-0.09-0.6-0.34-1.05-0.77l-13.24-11.76v11.5
			c0,0.35-0.11,0.63-0.32,0.85c-0.21,0.21-0.49,0.32-0.84,0.32h-0.9c-0.35,0-0.63-0.11-0.84-0.32c-0.21-0.21-0.32-0.49-0.32-0.85
			V22.59c0-0.35,0.11-0.63,0.32-0.85c0.21-0.21,0.49-0.32,0.84-0.32h0.9c0.35,0,0.63,0.11,0.84,0.32c0.21,0.21,0.32,0.49,0.32,0.85
			v18.68l11.77-8.92c0.56-0.42,0.95-0.68,1.16-0.76c0.21-0.09,0.56-0.13,1.06-0.13h1c0.32,0,0.57,0.1,0.76,0.29
			c0.19,0.19,0.29,0.45,0.29,0.76c0,0.39-0.23,0.74-0.68,1.06L239.23,43.7L253.89,56.78z"/>
	</g>
</g>
</svg>
