<svg width="49" height="48" fill="none" xmlns="http://www.w3.org/2000/svg"><path fill-rule="evenodd" clip-rule="evenodd" d="M4.803 0h38.625a4.687 4.687 0 0 1 4.687 4.688v38.625A4.687 4.687 0 0 1 43.428 48H4.803a4.687 4.687 0 0 1-4.688-4.687V4.688A4.688 4.688 0 0 1 4.803 0zm25.025 42.89v-4.694a9.021 9.021 0 0 0 5.796 2.141 6.68 6.68 0 0 0 1.562-.161c.446-.108.817-.257 1.115-.447.299-.19.521-.416.668-.675.147-.259.22-.54.22-.843 0-.41-.117-.777-.352-1.1a3.792 3.792 0 0 0-.961-.895 10.058 10.058 0 0 0-1.445-.792 49.742 49.742 0 0 0-1.805-.777c-1.643-.684-2.868-1.52-3.675-2.508-.807-.988-1.21-2.18-1.21-3.579 0-1.095.22-2.036.66-2.823a5.606 5.606 0 0 1 1.797-1.943c.758-.509 1.636-.883 2.633-1.122.998-.24 2.055-.36 3.17-.36 1.095 0 2.066.067 2.912.199.846.132 1.626.335 2.34.608v4.386a7.078 7.078 0 0 0-1.151-.646 9.145 9.145 0 0 0-1.284-.462 9.82 9.82 0 0 0-2.553-.36c-.538 0-1.027.052-1.468.155-.44.102-.811.247-1.114.433a2.154 2.154 0 0 0-.705.667c-.166.259-.25.55-.25.872 0 .352.094.668.28.946.185.28.45.543.792.792.342.25.758.494 1.247.734.49.24 1.042.486 1.658.74a18.47 18.47 0 0 1 2.267 1.122c.67.396 1.245.844 1.724 1.342.48.499.846 1.068 1.1 1.709.255.64.382 1.386.382 2.236 0 1.174-.223 2.159-.668 2.956a5.417 5.417 0 0 1-1.812 1.936c-.763.493-1.65.848-2.663 1.063a15.39 15.39 0 0 1-3.206.323c-1.154 0-2.252-.098-3.294-.294-1.041-.195-1.944-.488-2.707-.88zM27.96 26.632h-6.02V43.78h-4.77V26.633h-5.991V22.78H27.96v3.852z" fill="#A5B4FC"/></svg>