<svg width="106" height="48" fill="none" xmlns="http://www.w3.org/2000/svg"><path d="M82.768 12.753c-3.38-.836-6.817.548-8.595 3.454-1.756 2.868-1.415 6.625.82 9.11 2.368 2.635 5.95 3.359 9.164 1.858.309-.144.57-.463.974-.325.085 1.655-.133 2.566-.841 3.491-1.932 2.528-5.497 2.268-7.312-.537-.713-1.102-1.527-1.4-2.438-.894-.963.537-1.144 1.485-.479 2.64.953 1.66 2.353 2.793 4.135 3.47.314.116.272.116.75.297.55.213 2.236.267 3.018.123.48-.085.676-.192.996-.282 3.257-.974 5.54-3.843 5.62-7.243.058-2.656.069-5.311-.006-7.967-.1-3.417-2.544-6.392-5.806-7.195zm-6.333 7.477c-.005-2.384 1.974-4.337 4.39-4.327 2.369.01 4.306 1.905 4.343 4.247.037 2.39-1.921 4.38-4.321 4.396-2.422.01-4.401-1.927-4.412-4.316zm28.68-2.294c-1.171-3.619-4.774-5.918-8.462-5.375-3.837.564-6.663 3.736-6.732 7.552-.064 3.74 2.629 6.987 6.402 7.71 3.656.703 7.398-1.452 8.696-4.991.128-.357.436-1.107.474-1.655.053-.852.042-1.613-.096-2.251-.106-.463-.181-.67-.282-.99zm-7.456 6.61c-2.368-.011-4.3-1.906-4.343-4.258-.042-2.39 1.916-4.37 4.338-4.38 2.426-.01 4.411 1.927 4.411 4.316 0 2.384-1.979 4.327-4.406 4.322zm-35.146-5.972c-1.016-4.491-5.412-7.025-9.765-5.662-4.375 1.373-6.642 6.12-4.918 10.308 1.666 4.055 6.711 5.913 10.687 3.928.468-.235.82-.575 1.271.127.4.618 1.097.82 1.852.517.735-.298 1.054-.857 1.049-1.629-.005-1.102 0-2.203 0-3.587-.07-1.15.144-2.591-.176-4.002zm-7.52 5.971c-2.48-.032-4.427-1.963-4.358-4.321.064-2.342 2.107-4.305 4.465-4.295 2.373.01 4.257 2.001 4.225 4.46-.026 2.421-1.867 4.188-4.332 4.156zM73.55 14.078c-.084-1.112-1.02-1.682-2.474-1.522-3.485.388-6.2 2.879-6.865 6.333-.255 1.33-.058 2.687-.117 3.805 0 1.203-.005 2.182 0 3.161.01 1.346.607 2.091 1.671 2.102 1.064.016 1.714-.74 1.73-2.065.016-1.873-.016-3.752.01-5.625.032-2.341 1.655-4.204 3.97-4.3 1.373-.059 2.145-.969 2.076-1.89z" fill="#A5B4FC"/><path d="M16.243 38.928c.004 0 .009.013.009.038l.012.516c.025-.132.05-.264.079-.4-.021-.253-.22-.125-.1-.154zm10.844-14.131c-.004.004-.013.004-.017.008l.017.012c-.004-.004 0-.012 0-.02zM20.256 7.45v.005h.012c-.004 0-.008-.004-.012-.004z" fill="#FEFEFE"/><path d="M26.062 42.287c.053-.6.025-1.207.099-1.802.165-1.31.008-2.648.351-3.942.17-.669-.372-1.454.322-2.04l-.173-.571c-.194-.322-.095-.636.02-.95-.012-1.15 0-2.298.207-3.434.062-1.578.128-3.157.19-4.74l-.016-.012c-3.376 1.55-6.558-.62-7.099-3.223-.355-1.71-.165-3.326 1.17-4.631.223-.22.413-.471.62-.711.545-3.269.165-6.268-2.629-8.607.418-.24.794-.103 1.132-.165v-.004c-3.425-.86-7.582 1.483-8.958 5.061-.413 1.075-.636 2.182-.566 3.335 3.397-1.575 6.442.306 7.28 3.169.873 2.979-1.45 6.132-4.536 6.177-.9.012-1.756-.136-2.607-.388.062 1.644.128 3.289.19 4.933.12 1.079.248 2.153.194 3.24l.025.768-.025.513c.252 1.033.306 2.095.384 3.152a.604.604 0 0 1-.016-.082c.004.029.012.053.016.082.083 1.798.133 3.6.26 5.397.054.743-.214 1.115-.9 1.305-.81.227-1.608.5-2.41.756 1.075.15 2.133.166 3.19.14 1.145-.024 1.666-.532 1.778-1.669.07-.723.132-1.446.198-2.169l.223-3.933h.161v3.74c.02.565.029 1.135.066 1.701.165 2.64.244 2.624-2.388 3.157-.062.013-.116.05-.174.075.157.103.314.206.471.314.05.012.091.033.116.078.628.004 1.26.058 1.88 0 1.128-.107 1.661-.71 1.744-1.83.05-.72.124-1.438.186-2.157-.1-.955.045-1.893.223-2.83l-.012-.517c0-.025-.009-.041-.009-.037-.12.029.079-.1.1.153.02-.112.045-.224.066-.335v4.33c.012.508.028 1.012.037 1.52.02 1.84-.095 2.005-1.847 2.53-.484.144-.988.23-1.467.392-.347.12-.79.054-1.116.463 1.426-.054 2.76.107 4.087-.108 1.371-.223 1.917-.776 2.198-2.115.207-.984.293-1.996.67-2.992.053.108.094.157.107.215.19.93.38 1.864.562 2.793.256 1.302.785 1.856 2.107 2.087 1.368.236 2.752.074 4.169.107-.202-.347-.52-.289-.777-.363-.88-.256-1.776-.475-2.64-.773-.628-.219-1.078-.62-1.07-1.392.02-2.116.008-4.231.008-6.347h.256c.091 1.326.198 2.649.269 3.975.16 3.066.524 3.4 3.603 3.231.173-.29.599-.062.76-.372-.74-.004-1.384-.36-2.062-.587-.38-.128-.595-.47-.587-.892.034-2.173-.05-4.355.244-6.52.178 1.818.318 3.64.459 5.458.066.851.45 1.517 1.343 1.574 1.206.083 2.417.021 3.628.021-.64-.322-1.298-.512-1.95-.719-1.48-.475-1.472-.48-1.335-1.983zm-9.305-31.002a1.11 1.11 0 0 1-1.1 1.099c-.648.012-1.136-.36-1.148-1.202.07-.612.413-1.03 1.14-1.046.773-.012 1.12.509 1.108 1.149zm4.966 18.073c.004 1.673-1.276 3.132-2.74 3.128-1.38-.004-2.788-1.632-2.739-3.17-.074-.454-.152-.913-.256-1.549.988.674 1.818 1.364 2.93 1.389 1.136.02 2.029-.563 2.958-1.244.198.545-.302.97-.153 1.446z" fill="#A5B4FC"/><path d="M11.257 32.978c-.083-.029-.161-.066-.24-.095-1.132-.463-2.111-1.174-3.02-1.963-3.28-2.834-5.446-6.384-5.97-10.69-.596-4.891.5-9.407 3.763-13.287 2.98-3.537 6.777-5.6 11.31-6.074 5.036-.525 9.56.884 13.37 4.363 3.178 2.9 5.033 6.495 5.508 10.722.405 3.6-.244 7.078-2.095 10.24-1.681 2.871-3.92 5.201-6.95 6.677a6.846 6.846 0 0 1-.247.12c-.116.313-.22.627-.021.95.07-.062.132-.14.215-.186 4.574-2.422 7.747-6.02 9.23-11.028.129-.426.327-.637.802-.587.645.066.818-.364.818-.9.004-2.063.004-4.12.004-6.182 0-.442-.107-.93-.566-.98-.843-.099-.946-.714-1.115-1.313-.992-3.488-2.901-6.388-5.736-8.616-5.826-4.574-12.222-5.4-18.932-2.31-4.987 2.294-8.165 6.273-9.603 11.6-.09.33-.05.722-.611.606-.802-.165-1.103.306-1.108 1.017-.012 2.062-.004 4.12-.004 6.181 0 .686.347 1.05 1.009.889.607-.15.752.152.875.615a16.317 16.317 0 0 0 2.65 5.43c1.776 2.409 3.94 4.342 6.693 5.574a39.619 39.619 0 0 0-.03-.773z" fill="#A5B4FC" fill-opacity=".54"/><path d="M11.26 34.26c-.611 1.714-2.24 1.673-3.623 2.102 1.041.269 2.099.579 3.14.401.62-.107.74.116.83.484.009.029.013.057.021.086.004.025.012.054.017.083-.079-1.062-.133-2.12-.385-3.157zm15.253 2.288c1.322.6 2.57-.004 3.846-.178-1.247-.528-2.863-.256-3.52-1.863-.698.587-.157 1.372-.326 2.041zM10.1 46.299h2.132c-.037-.025-.079-.05-.116-.079-.157-.103-.314-.206-.471-.314-.467-.024-.905.079-1.545.393zm15.463.001h2.074c-.422-.245-.835-.451-1.314-.373-.161.314-.591.083-.76.372z" fill="#A5B4FC"/><path d="M26.937 32.866c3.029-1.47 5.264-3.801 6.95-6.677 1.851-3.161 2.5-6.64 2.095-10.239-.475-4.231-2.326-7.826-5.508-10.722C26.664 1.753 22.14.34 17.104.868c-4.53.472-8.33 2.537-11.31 6.074-3.268 3.88-4.36 8.396-3.764 13.289.525 4.31 2.69 7.854 5.97 10.689.914.79 1.893 1.504 3.021 1.963.079.033.157.066.24.095.053-1.087-.075-2.161-.195-3.24-.082-.058-.165-.116-.248-.177-.838-.608-1.557-1.356-2.28-2.091-.22-.223-.492-.413-.492-.777-.488.351-.839.107-1.124-.281-1.587-2.165-2.545-4.566-2.673-7.268-.116-2.388.099-4.71 1.103-6.946 1.277-2.838 3.24-5.008 5.875-6.62.447-.272.703-.028 1.013.174.301-.029.57-.132.764-.38l-.037-.087c-.264-.557-.277-1.19.36-1.338.64-.153 1.004.367 1.008 1.041 4.78-1.57 9.226-.934 13.238 2.128 3 2.289 4.72 5.359 5.244 9.103.678 4.813-.95 8.805-4.306 12.18a5.752 5.752 0 0 1-1.347 1.025c-.086.046-.173.087-.26.128-.206 1.137-.219 2.285-.206 3.434.074-.037.152-.079.24-.12z" fill="#A5B4FC" fill-opacity=".2"/><path d="M28.505 28.404c3.35-3.375 4.978-7.367 4.305-12.18-.525-3.748-2.244-6.818-5.244-9.103-4.012-3.062-8.462-3.694-13.238-2.128l-.025.016c-.376.24-.67.757-1.21.434-.034-.02-.063-.037-.096-.062-.194.248-.458.352-.764.38-.012.05-.029.095-.046.145-.342.963-1.371 1.215-2.061 1.793-1.872 1.566-3.26 3.442-4.078 5.715-1.314 3.66-1.046 7.247.714 10.71.285.562.637 1.095 1.013 1.603.223.306.293.611.264.963v.012c0 .36.273.554.492.777.727.735 1.442 1.483 2.28 2.09.083.058.166.12.248.178-.061-1.644-.128-3.289-.19-4.933-.004 0-.004-.004-.008-.004-1.43-.938-2.479-2.137-2.66-3.922-.228-2.202.698-3.83 2.499-5.016l.025-.016c-.07-1.157.153-2.264.566-3.335 1.376-3.574 5.532-5.92 8.958-5.061.004 0 .008 0 .012.004 2.273.367 4.14 1.405 5.48 3.31 1.07 1.524 1.623 3.206 1.507 5.082 1.29.979 2.33 2.128 2.5 3.826.227 2.285-.748 3.954-2.669 5.12v.02c-.062 1.578-.128 3.157-.19 4.74.09-.042.178-.083.26-.129a5.54 5.54 0 0 0 1.355-1.029z" fill="#A5B4FC" fill-opacity=".5"/><path d="M22.937 15.67c1.417-.699 2.793-.323 4.16.127l.154.05c.115-1.88-.438-3.562-1.508-5.082-1.34-1.905-3.207-2.942-5.48-3.31h-.012c-.338.066-.715-.074-1.132.165 2.793 2.339 3.178 5.339 2.628 8.607.087-.041.17-.078.256-.12.318-.144.628-.285.934-.438z" fill="#A5B4FC"/><path d="M29.755 19.678c-.17-1.699-1.21-2.847-2.5-3.827l-.153-.05c-1.372-.45-2.743-.825-4.16-.127-.306.153-.62.297-.93.442-.087.041-.17.078-.256.12-.207.235-.397.491-.62.71-1.339 1.306-1.525 2.922-1.17 4.632.542 2.608 3.723 4.777 7.103 3.231.004-.004.012-.004.017-.008 1.921-1.17 2.9-2.843 2.669-5.123zm-5.053 4.565c-2.195-.016-3.905-1.76-3.885-3.962.021-2.17 1.794-3.888 3.98-3.872 2.198.017 3.88 1.748 3.863 3.971-.017 2.207-1.736 3.884-3.959 3.863zm-13.998-8.379c-1.802 1.185-2.727 2.813-2.5 5.016.182 1.785 1.231 2.983 2.66 3.921.005 0 .005.004.009.004.851.252 1.702.4 2.607.389 3.083-.046 5.409-3.194 4.537-6.178-.839-2.863-3.888-4.743-7.28-3.169-.017.004-.025.013-.033.017zm2.462 8.38c-2.252.008-3.995-1.72-3.987-3.96.004-2.197 1.719-3.9 3.93-3.912 2.235-.012 4.02 1.748 4.011 3.946-.008 2.16-1.78 3.917-3.954 3.925z" fill="#A5B4FC"/><path d="M16.764 29.681c-.153-.153-.264-.36-.52-.364-.05 1.538 1.355 3.166 2.739 3.17 1.467.004 2.744-1.455 2.74-3.128-.554.285-.905.872-1.542 1.045-1.268.347-2.434.26-3.417-.723z" fill="#070909"/><path d="M8.038 26.686a1.35 1.35 0 0 0-.264-.963 11.764 11.764 0 0 1-1.012-1.603c-1.76-3.463-2.033-7.05-.715-10.71.818-2.273 2.206-4.149 4.078-5.715.69-.578 1.719-.826 2.062-1.793a1.45 1.45 0 0 0 .045-.145c-.31-.202-.566-.446-1.012-.173-2.636 1.611-4.599 3.78-5.876 6.62-1.004 2.234-1.219 4.557-1.103 6.945.132 2.698 1.087 5.103 2.674 7.268.285.388.64.632 1.123.28v-.011zm6.259-21.677c.008-.005.017-.013.025-.017-.008-.673-.368-1.194-1.008-1.041-.637.153-.624.785-.36 1.339l.037.086a.914.914 0 0 0 .095.062c.542.327.835-.194 1.211-.43z" fill="#A5B4FC"/><path d="M28.66 20.383c.017-2.218-1.664-3.95-3.862-3.97-2.19-.017-3.959 1.702-3.98 3.871a3.887 3.887 0 0 0 3.884 3.963c2.223.016 3.942-1.661 3.959-3.864zm-3.763.43c-.744.013-1.178-.409-1.244-1.14-.062-.682.55-1.318 1.227-1.273.727.054 1.137.48 1.223 1.24-.099.677-.446 1.16-1.206 1.173zm-11.79-4.437c-2.21.012-3.921 1.714-3.93 3.913-.003 2.24 1.736 3.966 3.988 3.958 2.173-.008 3.946-1.764 3.954-3.921.004-2.202-1.78-3.963-4.012-3.95zm.004 4.438c-.735.008-1.177-.414-1.235-1.153-.054-.682.562-1.314 1.244-1.256.719.061 1.14.479 1.206 1.24-.09.697-.47 1.16-1.215 1.169z" fill="#111827"/><path d="M24.88 18.4c-.678-.05-1.29.587-1.227 1.273.066.736.5 1.153 1.244 1.14.756-.012 1.107-.495 1.206-1.173-.087-.76-.496-1.186-1.223-1.24zm-11.76.005c-.682-.058-1.297.574-1.244 1.256.058.74.5 1.16 1.236 1.152.743-.008 1.124-.47 1.214-1.169-.07-.764-.491-1.182-1.206-1.24z" fill="#A5B4FC"/></svg>