<svg width="93" height="48" fill="none" xmlns="http://www.w3.org/2000/svg"><path d="M.055 43.72h3.062V31.628l4.74 10.541c.56 1.276 1.325 1.728 2.827 1.728 1.501 0 2.237-.452 2.797-1.728l4.74-10.54v12.09h3.062v-12.07c0-1.178-.47-1.747-1.442-2.041-2.326-.727-3.887-.099-4.594 1.472l-4.652 10.403L6.091 31.08c-.678-1.57-2.267-2.199-4.593-1.472-.972.294-1.443.863-1.443 2.04V43.72zm23.774-9.842h3.062v6.661c-.029.362.116 1.212 1.793 1.238.856.014 6.605 0 6.659 0v-7.932h3.068c.014 0-.003 10.817-.003 10.863.017 2.668-3.31 3.247-4.843 3.292h-9.67v-2.06c.018 0 9.662.002 9.687 0 1.97-.208 1.738-1.188 1.738-1.518v-.803h-6.51c-3.028-.028-4.956-1.35-4.98-2.87-.003-.14.065-6.805-.002-6.871zM40.77 43.72h8.804c1.03 0 2.032-.216 2.827-.589 1.325-.608 1.972-1.433 1.972-2.513v-2.237c0-.883-.736-1.708-2.178-2.257-.766-.295-1.708-.452-2.62-.452h-3.711c-1.236 0-1.825-.373-1.972-1.197-.03-.099-.03-.177-.03-.275v-1.394c0-.078 0-.157.03-.255.147-.628.47-.805 1.56-.903.088 0 .206-.02.295-.02h8.744v-2.04h-8.597c-1.237 0-1.885.078-2.473.254-1.826.57-2.62 1.472-2.62 3.043v1.786c0 1.374 1.56 2.552 4.18 2.827.295.02.589.039.883.039h3.18c.118 0 .236 0 .324.02.972.078 1.384.255 1.678.608a.73.73 0 0 1 .236.55V40.5c0 .217-.147.492-.441.727-.266.236-.707.393-1.296.432-.118 0-.206.02-.324.02h-8.45v2.041zm32.706-3.553c0 2.1 1.56 3.278 4.71 3.514.295.02.59.039.884.039h7.98v-2.041h-8.04c-1.796 0-2.473-.452-2.473-1.531V29.587h-3.062v10.58zm-17.148.107v-7.278c0-1.849 1.298-2.97 3.865-3.324.273-.04.55-.059.826-.06h5.812c.295 0 .561.02.856.06 2.567.354 3.865 1.475 3.865 3.324v7.278c0 1.5-.551 2.303-1.822 2.826l3.016 2.723h-3.555l-2.44-2.203-2.457.156h-3.275c-.56 0-1.15-.08-1.8-.256-1.947-.531-2.891-1.554-2.891-3.246zm3.305-.177c0 .099.03.197.059.315.177.846.973 1.318 2.183 1.318h2.782l-2.555-2.307h3.555l2.229 2.012c.41-.219.68-.554.775-.984.03-.098.03-.196.03-.295v-6.982c0-.08 0-.178-.03-.276-.177-.787-.974-1.239-2.154-1.239h-4.632c-1.357 0-2.242.59-2.242 1.515v6.923zM89.743 26.2c-1.882-.05-3.32.125-4.55.643-.349.147-.906.151-.963.589.192.201.222.502.375.749.293.475.789 1.111 1.23 1.445.484.365.982.755 1.5 1.07.92.562 1.95.883 2.836 1.446.523.331 1.042.75 1.552 1.124.252.185.422.473.75.589V33.8c-.173-.22-.217-.52-.375-.75l-.696-.695c-.68-.903-1.544-1.696-2.462-2.355-.732-.526-2.37-1.235-2.676-2.088l-.054-.053c.52-.059 1.127-.247 1.606-.375.805-.215 1.524-.16 2.355-.374l1.124-.322v-.214c-.42-.43-.72-1.001-1.178-1.391-1.198-1.02-2.506-2.04-3.853-2.89-.747-.472-1.67-.778-2.462-1.178-.266-.134-.734-.204-.91-.428-.416-.53-.642-1.203-.963-1.82a68.847 68.847 0 0 1-1.927-4.068c-.406-.928-.671-1.843-1.177-2.676-2.43-3.996-5.047-6.407-9.099-8.778-.862-.504-1.9-.703-2.998-.963l-1.766-.107c-.359-.15-.733-.59-1.07-.803-1.343-.848-4.786-2.693-5.78-.268-.628 1.531.938 3.025 1.498 3.8.393.545.897 1.155 1.178 1.767.184.402.216.805.375 1.23.389 1.05.727 2.19 1.23 3.159.255.49.535 1.006.857 1.445.197.269.535.387.588.803-.33.462-.349 1.18-.535 1.766-.836 2.637-.52 5.916.696 7.868.373.599 1.253 1.884 2.462 1.391 1.058-.43.821-1.766 1.124-2.943.068-.267.026-.464.16-.643v.054l.964 1.927c.713 1.148 1.978 2.348 3.05 3.158.557.42.995 1.146 1.713 1.391v-.053h-.053c-.14-.217-.357-.308-.535-.482a12.25 12.25 0 0 1-1.231-1.392c-.976-1.324-1.838-2.773-2.623-4.281-.375-.72-.7-1.516-1.017-2.248-.122-.283-.12-.71-.374-.857-.347.537-.857.972-1.124 1.606-.429 1.014-.484 2.25-.642 3.532-.095.034-.053.01-.108.054-.745-.18-1.007-.947-1.284-1.606-.701-1.665-.831-4.345-.215-6.262.16-.496.881-2.058.59-2.515-.14-.458-.6-.722-.857-1.071-.318-.432-.636-1-.857-1.499-.573-1.298-.84-2.755-1.445-4.067-.288-.628-.776-1.262-1.177-1.82-.444-.618-.94-1.073-1.284-1.82-.123-.265-.289-.69-.108-.963.058-.184.14-.261.322-.322.31-.239 1.175.08 1.498.215.858.356 1.575.696 2.302 1.177.349.232.702.68 1.124.803h.481c.754.173 1.598.054 2.302.268 1.244.378 2.359.966 3.371 1.605 3.086 1.948 5.608 4.721 7.333 8.029.278.532.398 1.04.642 1.605.494 1.14 1.115 2.312 1.606 3.426.49 1.111.967 2.233 1.66 3.158.363.486 1.769.747 2.407 1.017.448.189 1.182.386 1.606.642.81.488 1.596 1.07 2.355 1.606.38.267 1.548.854 1.606 1.338z" fill="#A5B4FC"/><path fill-rule="evenodd" clip-rule="evenodd" d="M65.819 5.809a3.838 3.838 0 0 0-.963.106v.054h.053c.187.385.517.632.75.963l.535 1.124.053-.053c.332-.234.483-.607.482-1.177-.133-.14-.153-.316-.268-.482-.153-.223-.45-.349-.642-.535zM88.486 41.62c0 1.349 1.066 2.257 2.257 2.257 1.192 0 2.257-.908 2.257-2.257 0-1.347-1.065-2.256-2.257-2.256-1.191 0-2.256.909-2.256 2.256zm4.008 0c0 1.023-.782 1.788-1.75 1.788-.981 0-1.752-.765-1.752-1.788 0-1.023.77-1.787 1.751-1.787.97 0 1.751.764 1.751 1.787zm-1.143 1.288h.505l-.74-1.13c.398-.043.698-.236.698-.705 0-.524-.33-.74-.968-.74H89.84v2.575h.433v-1.113h.403l.674 1.113zm-1.077-1.474v-.74h.5c.258 0 .571.048.571.349 0 .36-.283.39-.608.39h-.463z" fill="#A5B4FC"/></svg>