<svg width="180" height="48" fill="none" xmlns="http://www.w3.org/2000/svg"><path fill-rule="evenodd" clip-rule="evenodd" d="M90.759 0a.725.725 0 0 0-.36.096.725.725 0 0 0-.358.622v18.304c0 .18-.084.34-.24.431a.499.499 0 0 1-.502 0l-2.99-1.723a1.433 1.433 0 0 0-1.436 0l-11.94 6.891a1.47 1.47 0 0 0-.718 1.269v13.782c0 .515.272.986.718 1.244l11.94 6.89c.446.259.989.259 1.435 0l11.94-6.89c.446-.258.718-.73.718-1.244V5.312c0-.523-.285-1.013-.742-1.268L91.118.072a.702.702 0 0 0-.36-.072zM13.952 17.204a1.35 1.35 0 0 0-.646.167l-11.94 6.892a1.43 1.43 0 0 0-.718 1.244l.024 18.495c0 .258.133.497.36.623a.697.697 0 0 0 .717 0l7.083-4.068c.448-.267.741-.73.741-1.244v-8.638c0-.515.271-.988.718-1.244l3.015-1.747c.225-.13.467-.191.718-.191.246 0 .499.061.718.191l3.014 1.747c.447.256.718.729.718 1.244v8.638c0 .514.296.98.742 1.244l7.082 4.068a.72.72 0 0 0 1.077-.622l.024-18.496c0-.519-.27-.987-.718-1.245l-11.94-6.89a1.34 1.34 0 0 0-.646-.168h-.143zm107.29.167a1.43 1.43 0 0 0-.718.192l-11.939 6.89a1.432 1.432 0 0 0-.718 1.245V39.48c0 .518.292.988.741 1.245l11.844 6.747c.438.25.972.268 1.412.024l7.178-3.996a.706.706 0 0 0 .024-1.244l-12.011-6.892a.773.773 0 0 1-.383-.646v-4.307c0-.257.16-.493.383-.622l3.732-2.153a.717.717 0 0 1 .718 0l3.733 2.154a.716.716 0 0 1 .359.622v3.397c0 .258.136.494.359.622a.71.71 0 0 0 .718 0l7.154-4.163c.444-.258.718-.73.718-1.244v-3.326c0-.514-.273-.986-.718-1.244l-11.868-6.891a1.423 1.423 0 0 0-.718-.192zm-35.7 10.29c.063 0 .136.014.192.047l4.092 2.369a.371.371 0 0 1 .19.31v4.738a.368.368 0 0 1-.19.311l-4.092 2.369a.362.362 0 0 1-.359 0l-4.091-2.369a.37.37 0 0 1-.192-.31v-4.738c0-.129.08-.247.192-.312l4.091-2.368a.316.316 0 0 1 .168-.047z" fill="#A5B4FC"/><path fill-rule="evenodd" clip-rule="evenodd" d="M157.013 17.036a2.36 2.36 0 0 0-1.172.287l-11.27 6.509a2.375 2.375 0 0 0-1.173 2.058v12.992c0 .844.444 1.637 1.173 2.058l2.943 1.699c1.43.704 1.957.693 2.608.693 2.117 0 3.326-1.284 3.326-3.517V26.99c0-.181-.157-.311-.335-.311h-1.412c-.181 0-.335.13-.335.311v12.825c0 .99-1.031 1.985-2.704 1.149l-3.062-1.795c-.108-.059-.192-.163-.192-.287V25.89a.38.38 0 0 1 .192-.312l11.246-6.484c.105-.06.23-.06.335 0l11.245 6.484a.38.38 0 0 1 .192.312v12.992a.36.36 0 0 1-.168.311l-11.269 6.484a.347.347 0 0 1-.335 0l-2.896-1.722a.3.3 0 0 0-.287 0c-.799.453-.949.505-1.699.765-.184.065-.465.165.096.479l3.781 2.225c.359.208.761.311 1.172.311.417 0 .813-.103 1.173-.31l11.269-6.485a2.379 2.379 0 0 0 1.173-2.058V25.89c0-.845-.443-1.637-1.173-2.058l-11.269-6.509a2.354 2.354 0 0 0-1.173-.287zM49.819 17.3c-.25 0-.495.063-.718.192l-11.94 6.867a1.47 1.47 0 0 0-.718 1.268v13.782c0 .516.272.987.718 1.245l11.94 6.89c.446.258.99.258 1.435 0l11.94-6.89c.446-.258.718-.73.718-1.245V25.626a1.47 1.47 0 0 0-.718-1.268l-11.94-6.867a1.428 1.428 0 0 0-.717-.192zm123.919.073v.334h.933v2.465h.383v-2.465h.957v-.334h-2.273zm2.608 0v2.799h.359V18.52c0-.067.003-.172 0-.311-.004-.142 0-.266 0-.335v-.072l.79 2.369h.383l.813-2.369c0 .15-.02.296-.024.43v1.938h.359v-2.799h-.526l-.814 2.37-.789-2.37h-.551zm-16.318 8.948c-3.209 0-5.121 1.366-5.121 3.637 0 2.464 1.897 3.141 4.977 3.446 3.685.36 3.972.902 3.972 1.627 0 1.258-1.003 1.794-3.373 1.794-2.979 0-3.634-.743-3.853-2.225-.026-.159-.148-.287-.311-.287h-1.459a.342.342 0 0 0-.335.335c0 1.897 1.031 4.14 5.958 4.14 3.566 0 5.622-1.4 5.622-3.853 0-2.431-1.661-3.084-5.12-3.541-3.495-.463-3.828-.689-3.828-1.508 0-.675.282-1.579 2.871-1.579 2.312 0 3.167.499 3.517 2.058.031.147.16.263.311.263h1.46c.09 0 .177-.055.239-.12.061-.068.104-.146.096-.239-.226-2.685-2.017-3.948-5.623-3.948zm-38.81 3.278c-.048 0-.101 0-.144.024l-2.297 1.34a.279.279 0 0 0-.143.24v2.631c0 .1.057.19.143.24l2.297 1.316a.25.25 0 0 0 .263 0l2.297-1.316a.28.28 0 0 0 .144-.24v-2.632a.28.28 0 0 0-.144-.239l-2.297-1.34c-.042-.025-.071-.024-.119-.024z" fill="#A5B4FC"/></svg>