<svg width="49" height="48" fill="none" xmlns="http://www.w3.org/2000/svg"><g clip-path="url(#a)"><path fill-rule="evenodd" clip-rule="evenodd" d="m1.417 25.561 10.441 18.086h-.002a3.125 3.125 0 0 0 2.694 1.562h20.888a3.122 3.122 0 0 0 2.7-1.562L48.58 25.562a3.122 3.122 0 0 0 0-3.123L38.14 4.354a3.122 3.122 0 0 0-2.69-1.562H14.559a3.123 3.123 0 0 0-2.7 1.562L1.417 22.439a3.122 3.122 0 0 0 0 3.122zm30.331 3.654 3.2 3.208a.503.503 0 0 1 0 .71l-.84.84a.503.503 0 0 1-.71 0l-3.208-3.208a.5.5 0 0 1-.084-.112 8.722 8.722 0 1 1 1.523-1.528.5.5 0 0 1 .119.09zm-10.666.028a6.562 6.562 0 1 0 7.29-10.914 6.562 6.562 0 0 0-7.29 10.914zm-.549-3.095v-2.712l1.754-.016v4.51a4.818 4.818 0 0 1-1.754-1.782zm3.282 2.369v-7.33h1.753v7.33a4.833 4.833 0 0 1-1.753 0zm5.073-2.38v.005l.001-.007-.001.003zm0-1.601v1.602a4.822 4.822 0 0 1-1.753 1.773v-3.375h1.753z" fill="#A5B4FC"/></g><defs><clipPath id="a"><path fill="#fff" transform="translate(.998)" d="M0 0h48v48H0z"/></clipPath></defs></svg>