<svg width="48" height="48" fill="none" xmlns="http://www.w3.org/2000/svg"><path d="M23.98 0c-1.958.01-3.828.177-5.473.468-4.845.856-5.725 2.648-5.725 5.952v4.364h11.451v1.455H8.484c-3.328 0-6.242 2-7.153 5.806-1.052 4.362-1.098 7.084 0 11.638.814 3.39 2.757 5.806 6.086 5.806h3.937v-5.232c0-3.78 3.27-7.114 7.154-7.114h11.437c3.184 0 5.726-2.621 5.726-5.819V6.42c0-3.103-2.618-5.434-5.726-5.952A35.716 35.716 0 0 0 23.98 0zm-6.193 3.51c1.183 0 2.149.982 2.149 2.19 0 1.202-.966 2.175-2.15 2.175-1.186 0-2.148-.973-2.148-2.176 0-1.207.962-2.188 2.149-2.188z" fill="#A5B4FC"/><path d="M37.1 12.24v5.084c0 3.943-3.343 7.26-7.154 7.26H18.508c-3.133 0-5.726 2.682-5.726 5.82v10.904c0 3.103 2.699 4.929 5.726 5.819 3.625 1.066 7.1 1.258 11.438 0 2.883-.835 5.726-2.515 5.726-5.82v-4.363H24.233v-1.455h17.163c3.328 0 4.568-2.322 5.726-5.806 1.195-3.587 1.144-7.037 0-11.638-.823-3.313-2.394-5.806-5.726-5.806H37.1zm-6.434 27.613c1.188 0 2.15.973 2.15 2.176 0 1.207-.962 2.188-2.15 2.188-1.182 0-2.148-.981-2.148-2.188 0-1.203.966-2.176 2.148-2.176z" fill="#A5B4FC"/></svg>