<svg width="47" height="48" fill="none" xmlns="http://www.w3.org/2000/svg"><g clip-path="url(#a)"><path fill-rule="evenodd" clip-rule="evenodd" d="M46.613 10.675a.744.744 0 0 1 .026.192v10.128a.738.738 0 0 1-.37.641l-8.502 4.894v9.7a.74.74 0 0 1-.369.642L19.654 47.085c-.04.023-.085.038-.13.054-.016.005-.032.016-.05.02a.742.742 0 0 1-.378 0c-.02-.005-.038-.016-.058-.024-.04-.015-.083-.028-.122-.05L1.176 36.871a.739.739 0 0 1-.371-.64V5.847c0-.067.009-.131.026-.194.005-.021.018-.04.025-.062.014-.039.027-.078.047-.114.014-.024.035-.044.051-.066.021-.03.04-.06.066-.086.021-.02.049-.037.073-.055.026-.022.05-.046.08-.064h.002L10.045.1a.74.74 0 0 1 .74 0l8.87 5.107h.002c.03.019.054.042.08.063.025.019.052.035.073.055.026.027.044.058.066.087.016.022.037.042.05.066.022.037.034.075.048.114.008.021.02.04.026.063a.744.744 0 0 1 .026.193v18.977l7.392-4.256v-9.701c0-.065.01-.13.026-.192.006-.023.018-.042.026-.063.014-.039.027-.079.048-.115.014-.024.034-.043.05-.065.022-.03.04-.06.066-.086.021-.021.048-.037.072-.055.028-.023.052-.047.081-.064h.001L36.66 5.12a.74.74 0 0 1 .738 0l8.871 5.107c.031.018.055.041.083.063.023.018.05.035.071.055.026.027.044.057.067.087.016.022.036.041.05.065.02.036.033.076.047.115.009.021.02.04.026.063zm-1.453 9.893v-8.422l-3.104 1.787-4.288 2.47v8.421l7.393-4.256zm-8.87 15.235v-8.427l-4.219 2.409-12.046 6.875v8.507l16.265-9.364zM2.283 7.125v28.678l16.263 9.363v-8.505l-8.496-4.808-.003-.002-.003-.002c-.029-.017-.053-.04-.08-.06-.023-.02-.05-.034-.07-.054l-.002-.003c-.024-.023-.04-.052-.06-.078-.019-.025-.041-.046-.056-.072v-.003c-.017-.027-.028-.06-.04-.092-.012-.027-.027-.053-.035-.083-.009-.036-.01-.073-.014-.109-.004-.028-.012-.055-.012-.083v-19.83l-4.287-2.47-3.105-1.786zm8.133-5.533L3.025 5.847l7.389 4.254 7.39-4.255-7.39-4.254h.002zm3.843 26.552 4.288-2.468V7.125l-3.104 1.786-4.289 2.47v18.55l3.105-1.788zm22.77-21.53-7.39 4.253 7.39 4.255 7.39-4.255-7.39-4.254zm-.74 9.788-4.288-2.469-3.104-1.787v8.422l4.287 2.468 3.106 1.788v-8.422zm-17.004 18.98 10.84-6.189 5.418-3.092-7.385-4.252-8.502 4.895-7.75 4.462 7.379 4.176z" fill="#A5B4FC"/></g><defs><clipPath id="a"><path fill="#fff" transform="translate(.805)" d="M0 0h46.154v48H0z"/></clipPath></defs></svg>