<svg width="108" height="40" fill="none" xmlns="http://www.w3.org/2000/svg"><g clip-path="url(#a)" fill="#A5B4FC"><path d="M8.8 12.1c-.21 0-.261-.105-.157-.261l1.095-1.409c.104-.156.365-.26.574-.26H28.93c.208 0 .26.156.156.313l-.886 1.355c-.105.157-.365.313-.522.313L8.8 12.1zM.924 16.897c-.208 0-.26-.104-.156-.26l1.095-1.409c.104-.156.365-.26.574-.26h23.78c.21 0 .314.156.262.312l-.418 1.252c-.052.209-.26.313-.469.313l-24.668.052zm12.62 4.798c-.208 0-.26-.157-.156-.313l.73-1.304c.104-.156.313-.313.522-.313h10.43c.209 0 .313.157.313.365l-.104 1.252c0 .209-.209.365-.366.365l-11.369-.052zM67.678 11.16c-3.285.835-5.528 1.46-8.76 2.295-.783.209-.835.26-1.513-.521-.783-.887-1.356-1.46-2.451-1.982-3.286-1.617-6.467-1.147-9.44.782-3.546 2.295-5.371 5.685-5.32 9.909.053 4.172 2.921 7.614 7.041 8.188 3.547.469 6.52-.783 8.866-3.442.47-.574.886-1.2 1.408-1.93H47.444c-1.095 0-1.356-.678-.991-1.564.678-1.617 1.93-4.33 2.66-5.685.156-.313.521-.834 1.303-.834H69.4c-.105 1.408-.105 2.816-.314 4.224-.573 3.755-1.981 7.197-4.276 10.221-3.755 4.955-8.657 8.032-14.863 8.866-5.11.678-9.857-.313-14.029-3.442-3.859-2.92-6.05-6.78-6.623-11.577-.678-5.685.991-10.796 4.433-15.28C37.431 4.537 42.333 1.46 48.33.364c4.903-.886 9.596-.313 13.82 2.556 2.764 1.825 4.746 4.328 6.05 7.353.313.47.104.73-.522.886z"/><path d="M84.94 40c-4.746-.104-9.074-1.46-12.725-4.59-3.077-2.659-5.006-6.049-5.632-10.064-.939-5.893.678-11.108 4.224-15.75C74.614 4.59 79.204 1.982 85.41.886c5.32-.938 10.326-.416 14.864 2.66 4.12 2.817 6.675 6.624 7.353 11.63.887 7.04-1.147 12.777-5.997 17.68-3.442 3.494-7.667 5.684-12.517 6.675-1.408.26-2.816.313-4.172.47zm12.412-21.069c-.052-.678-.052-1.2-.156-1.72-.939-5.164-5.685-8.084-10.64-6.937-4.85 1.095-7.978 4.172-9.126 9.074-.938 4.068 1.043 8.188 4.798 9.857 2.869 1.252 5.737 1.095 8.501-.313 4.12-2.138 6.362-5.476 6.623-9.96z"/></g><defs><clipPath id="a"><path fill="#fff" transform="translate(.716)" d="M0 0h107.119v40H0z"/></clipPath></defs></svg>