<svg width="51" height="48" fill="none" xmlns="http://www.w3.org/2000/svg"><path fill-rule="evenodd" clip-rule="evenodd" d="M44.074 8.575c.851.454 1.533 1.192 1.817 2.1l4.315 18.57a3.878 3.878 0 0 1-.681 2.725L37.543 46.79c-.624.852-1.59 1.307-2.612 1.193h-19.08c-.965-.057-1.93-.511-2.611-1.192L1.258 31.97a3.582 3.582 0 0 1-.625-2.726l4.26-18.682a3.051 3.051 0 0 1 1.703-2.1L23.915.113C24.369 0 24.88 0 25.335 0c.454 0 .965.057 1.42.284l17.319 8.29zm-.966 19.874c0 .057.057.057.114.057.51.113.965.568 1.022 1.192-.17.455-.625.795-1.136.795-.113 0-.17 0-.284-.056-.032-.033-.046-.047-.063-.053-.012-.004-.026-.004-.05-.004-.067 0-.114-.02-.153-.036-.027-.011-.05-.021-.075-.021a1.959 1.959 0 0 1-.457-.197 6.71 6.71 0 0 0-.167-.087c-.114 0-.227-.057-.34-.114h-.058a9.544 9.544 0 0 0-1.817-.51h-.056a.646.646 0 0 0-.455.17s0 .056-.056.056l-.455-.056c-1.022 3.236-3.236 5.962-6.133 7.722l.17.455s-.056 0-.056.056c-.114.17-.114.398-.057.568.227.568.511 1.136.909 1.647v.114c.113.113.17.17.227.284.17.17.284.34.397.567.057.057.114.114.114.17 0 0 .057 0 .057.057.113.285.113.568.057.852-.057.284-.284.511-.512.625a4.803 4.803 0 0 0-.1.035.978.978 0 0 1-.354.078c-.454 0-.852-.283-1.079-.68-.056 0-.056-.058-.056-.058a.297.297 0 0 1-.057-.085.297.297 0 0 0-.057-.085c-.114-.17-.17-.397-.227-.625l-.114-.34v-.057c-.17-.625-.454-1.193-.738-1.76a.883.883 0 0 0-.454-.341c0-.057 0-.057-.057-.057l-.227-.397c-.145.043-.293.09-.444.138-.442.14-.907.288-1.373.373a11.37 11.37 0 0 1-3.067.397c-1.703 0-3.35-.284-4.94-.908l-.227.454c0 .028 0 .042-.007.05-.007.007-.021.007-.05.007a.883.883 0 0 0-.454.34c-.284.568-.568 1.136-.738 1.76l-.114.341a1.96 1.96 0 0 1-.113.313 2.013 2.013 0 0 0-.114.312c-.057.057-.114.114-.114.17-.056 0-.056.057-.056.057-.227.398-.625.681-1.08.681a1.05 1.05 0 0 1-.397-.113c-.51-.284-.738-.965-.454-1.533.057 0 .057-.057.057-.057a.299.299 0 0 0 .057-.085.297.297 0 0 1 .056-.085c.075-.1.139-.2.197-.29a1.79 1.79 0 0 1 .2-.278c.114-.114.171-.17.228-.284v-.057c.34-.511.681-1.079.909-1.647.056-.17.056-.397-.057-.568 0 0-.057 0-.057-.056l.284-.398c-.568-.284-1.022-.624-1.533-1.022-2.215-1.703-3.805-4.032-4.656-6.644l-.512.057s0-.057-.056-.057a.645.645 0 0 0-.455-.17h-.056c-.682.114-1.25.284-1.874.511h-.057c-.114 0-.227.057-.34.114-.064.02-.136.05-.212.08-.128.053-.27.111-.413.147a.498.498 0 0 1-.075-.011c-.07-.013-.153-.029-.153.01 0 .057 0 .057-.056.057-.114.057-.17.057-.284.057-.511.057-1.022-.284-1.136-.795a1.108 1.108 0 0 1 .909-1.306c.056-.056.056-.056.113-.056.067 0 .114-.02.153-.036a.185.185 0 0 1 .074-.021c.114 0 .227-.014.341-.029.114-.014.227-.028.34-.028.114-.057.228-.057.341-.057.682-.057 1.306-.17 1.931-.34.17-.114.34-.228.398-.398 0 0 .056 0 .056-.057l.455-.113c-.511-3.237.227-6.53 1.987-9.313.028-.057.057-.1.085-.142.029-.043.057-.085.085-.142l-.33-.33c.027-.163-.077-.361-.18-.465-.455-.454-1.023-.795-1.59-1.136l-.341-.17c-.227-.114-.455-.227-.625-.34-.057 0-.17-.114-.17-.114s0-.057-.057-.057c-.454-.398-.568-1.079-.227-1.59.17-.284.454-.398.795-.398.284 0 .568.114.795.284l.056.057a.285.285 0 0 0 .086.057.294.294 0 0 1 .085.057c.085.085.156.17.227.255.071.085.142.17.227.256.017.017.04.034.064.053a.52.52 0 0 1 .163.174c.398.454.909.909 1.42 1.306.114.057.227.114.34.114.067 0 .114-.02.153-.036a.202.202 0 0 1 .075-.021h.056l.341.227c1.874-1.988 4.316-3.407 6.985-3.975l.291-.049c.57-.096 1.105-.186 1.64-.235l.056-.454v-.114c.17-.113.227-.284.284-.454 0-.681 0-1.306-.113-1.93v-.057c0-.114 0-.228-.057-.341-.057-.227-.114-.454-.114-.682v-.284c0-.283.114-.567.34-.794.285-.284.626-.455.966-.398.568.057 1.022.625.966 1.192v.341a2.842 2.842 0 0 0-.057.34 2.842 2.842 0 0 1-.057.342.712.712 0 0 1-.028.17.68.68 0 0 0-.029.17v.057c-.113.682-.113 1.306-.113 1.93.056.171.113.341.284.455v-.057l.056.454c2.67.284 5.281 1.307 7.382 2.953.228.227.469.455.71.682.242.227.483.454.71.681l.454-.284h.057c.057.057.17.057.227.057.114 0 .227-.057.34-.114a7.464 7.464 0 0 0 1.42-1.249.672.672 0 0 1 .064-.053.52.52 0 0 0 .164-.174c.113-.17.284-.34.454-.511.057 0 .113-.057.17-.114l.057-.056c.227-.17.511-.284.795-.284.284 0 .625.17.795.397.397.511.284 1.193-.227 1.59 0 .022.008.035.015.047.012.018.02.032-.015.067-.029.028-.057.042-.085.056a.297.297 0 0 0-.086.057 6.244 6.244 0 0 0-.312.17c-.1.057-.199.114-.312.171l-.34.17c-.569.341-1.08.682-1.59 1.136-.114.114-.171.34-.171.511v.057l-.34.34c.908 1.42 1.59 3.01 1.986 4.657.341 1.647.455 3.35.228 4.997l.454.114c.057.17.227.34.397.397.625.17 1.306.284 1.931.34h.057a.72.72 0 0 0 .34.058c.228 0 .455 0 .682.056.114 0 .227 0 .227.057zM13.478 17.33l-.011-.01v.056a.282.282 0 0 0 .01-.046zm11.8 10.154 1.533-.739.398-1.646-1.08-1.363h-1.703l-1.079 1.363.398 1.646 1.533.739zm11.016-.852a10.872 10.872 0 0 0-.227-3.578 11.553 11.553 0 0 0-1.363-3.35l-4.259 3.862a.916.916 0 0 0-.227.397c-.113.511.17 1.022.681 1.136l5.395 1.533zm-7.95-5.735 4.657-3.294c-1.704-1.703-3.919-2.782-6.417-3.066l.34 5.735c0 .17.057.284.171.398.284.397.852.454 1.25.227zm-4.486-6.417-1.135.227c-1.988.454-3.805 1.477-5.281 2.896l4.713 3.35.1.036c.12.043.22.078.354.078.511 0 .965-.397.965-.909l.284-5.678zm-3.861 8.972-4.202-3.748a11.953 11.953 0 0 0-1.647 6.928l5.508-1.59c.227-.057.34-.114.454-.284.341-.397.284-.965-.113-1.306zm.454 4.883-5.622.966c.795 2.271 2.386 4.259 4.373 5.565l2.158-5.224c.113-.17.113-.398.056-.568-.056-.455-.51-.739-.965-.739zm4.827 8.291c.852 0 1.647-.114 2.442-.284.397-.114.738-.17 1.078-.227l-2.725-4.94c-.17-.17-.284-.284-.454-.398-.398-.227-.852-.113-1.136.227L21.7 36.058c1.135.34 2.384.568 3.577.568zm5.962-1.817a10.842 10.842 0 0 0 3.407-3.407c.455-.625.795-1.363 1.08-2.158l-5.68-.965c-.17 0-.34.056-.51.113a.923.923 0 0 0-.511 1.08l2.214 5.337z" fill="#A5B4FC"/></svg>