<svg width="60" height="48" fill="none" xmlns="http://www.w3.org/2000/svg"><g clip-path="url(#a)" fill="#A5B4FC"><path d="m39.961 13.24 5.185-5.186.346-2.183C36.043-2.72 21.023-1.746 12.506 7.904c-2.367 2.68-4.122 6.022-5.058 9.473l1.857-.262 10.37-1.71.801-.819c4.613-5.066 12.413-5.748 17.739-1.437l1.746.09z"/><path d="M52.533 17.224a23.358 23.358 0 0 0-7.04-11.353l-7.278 7.277a12.936 12.936 0 0 1 4.748 10.262v1.29c3.577 0 6.477 2.9 6.477 6.477 0 3.577-2.9 6.404-6.477 6.404H29.991l-1.273 1.383v7.768l1.273 1.22h12.972c9.304.072 16.906-7.339 16.978-16.643a16.847 16.847 0 0 0-7.408-14.086z"/><path d="M17.037 47.952h12.954v-10.37H17.037A6.357 6.357 0 0 1 14.381 37l-1.838.564-5.221 5.185-.455 1.765c2.928 2.21 6.501 3.454 10.17 3.438z"/><path d="M17.038 14.313C7.733 14.37.236 21.956.29 31.26a16.847 16.847 0 0 0 6.576 13.254L14.381 37a6.477 6.477 0 1 1 8.57-8.569l7.513-7.514a16.829 16.829 0 0 0-13.426-6.604z"/></g><defs><clipPath id="a"><path fill="#fff" transform="translate(.291)" d="M0 0h59.651v48H0z"/></clipPath></defs></svg>